<?xml version="1.0" standalone="no"?>
<svg viewBox="0 0 200 200" xmlns="http://www.w3.org/2000/svg">
  <path fill="#282A2A" d="M42.4,-74C55.5,-65.9,67,-55.6,75,-42.9C83.1,-30.2,87.7,-15.1,88.5,0.5C89.3,16.1,86.4,32.1,78.8,45.6C71.2,59,58.9,69.9,45,76.6C31.1,83.4,15.5,86,0.4,85.2C-14.7,84.4,-29.3,80.3,-42.6,73.2C-55.9,66.1,-67.9,56.1,-76.3,43.4C-84.6,30.7,-89.4,15.4,-90.2,-0.4C-90.9,-16.2,-87.5,-32.4,-79.2,-45.3C-71,-58.2,-57.8,-67.8,-43.8,-75.3C-29.8,-82.9,-14.9,-88.5,-0.1,-88.3C14.7,-88.1,29.3,-82.2,42.4,-74Z" transform="translate(100 100)" />
</svg>
